{
  "accessors": [
    {
      "bufferView": 2,
      "componentType": 5126,
      "count": 7123,
      "max": [
        0.46836531162261963,
        0.21124622225761414,
        1.2985296249389648
      ],
      "min": [
        -0.7083314061164856,
        -0.21124622225761414,
        -3.4844253063201904
      ],
      "type": "VEC3"
    },
    {
      "bufferView": 2,
      "byteOffset": 85476,
      "componentType": 5126,
      "count": 7123,
      "max": [
        0.9999768137931824,
        1.0,
        1.0
      ],
      "min": [
        -0.9997994899749756,
        -1.0,
        -1.0
      ],
      "type": "VEC3"
    },
    {
      "bufferView": 3,
      "componentType": 5126,
      "count": 7123,
      "max": [
        0.9999968409538269,
        0.9999988675117493,
        0.9999962449073792,
        1.0
      ],
      "min": [
        -0.9999988675117493,
        -0.9999933838844299,
        -0.9999963045120239,
        -1.0
      ],
      "type": "VEC4"
    },
    {
      "bufferView": 1,
      "componentType": 5126,
      "count": 7123,
      "max": [
        0.9984955787658691,
        0.9922556281089783
      ],
      "min": [
        0.0014973580837249756,
        0.0014989577466621995
      ],
      "type": "VEC2"
    },
    {
      "bufferView": 1,
      "byteOffset": 56984,
      "componentType": 5126,
      "count": 7123,
      "max": [
        0.9984955787658691,
        0.9922556281089783
      ],
      "min": [
        0.0014973580837249756,
        0.0014989577466621995
      ],
      "type": "VEC2"
    },
    {
      "bufferView": 0,
      "componentType": 5125,
      "count": 35610,
      "type": "SCALAR"
    }
  ],
  "asset": {
    "extras": {
      "author": "Michal Cavrnoch (https://sketchfab.com/MichalCavrnoch)",
      "license": "CC-BY-NC-4.0 (http://creativecommons.org/licenses/by-nc/4.0/)",
      "source": "https://sketchfab.com/3d-models/malikeths-black-blade-2a05bdc774cb46daaae3b04a606b456c",
      "title": "Maliketh's Black Blade"
    },
    "generator": "Sketchfab-13.74.0",
    "version": "2.0"
  },
  "bufferViews": [
    {
      "buffer": 0,
      "byteLength": 142440,
      "name": "floatBufferViews",
      "target": 34963
    },
    {
      "buffer": 0,
      "byteLength": 113968,
      "byteOffset": 142440,
      "byteStride": 8,
      "name": "floatBufferViews",
      "target": 34962
    },
    {
      "buffer": 0,
      "byteLength": 170952,
      "byteOffset": 256408,
      "byteStride": 12,
      "name": "floatBufferViews",
      "target": 34962
    },
    {
      "buffer": 0,
      "byteLength": 113968,
      "byteOffset": 427360,
      "byteStride": 16,
      "name": "floatBufferViews",
      "target": 34962
    }
  ],
  "buffers": [
    {
      "byteLength": 541328,
      "uri": ".bin"
    }
  ],
  "images": [
    {
      "uri": "textures/Material_baseColor.png"
    },
    {
      "uri": "textures/Material_metallicRoughness.png"
    },
    {
      "uri": "textures/Material_normal.png"
    }
  ],
  "materials": [
    {
      "doubleSided": true,
      "name": "Material",
      "normalTexture": {
        "index": 2
      },
      "occlusionTexture": {
        "index": 1
      },
      "pbrMetallicRoughness": {
        "baseColorTexture": {
          "index": 0
        },
        "metallicRoughnessTexture": {
          "index": 1
        },
        "roughnessFactor": 0.8137476196
      }
    }
  ],
  "meshes": [
    {
      "name": "black_blade_Material_0",
      "primitives": [
        {
          "attributes": {
            "NORMAL": 1,
            "POSITION": 0,
            "TANGENT": 2,
            "TEXCOORD_0": 3,
            "TEXCOORD_1": 4
          },
          "indices": 5,
          "material": 0,
          "mode": 4
        }
      ]
    }
  ],
  "nodes": [
    {
      "children": [
        1
      ],
      "matrix": [
        0.3953721523284912,
        -0.768269717693329,
        0.5034307241439817,
        0.0,
        0.0,
        -0.5480884313583372,
        -0.8364204168319703,
        0.0,
        0.918520987033844,
        0.3306973576545716,
        -0.21669889986515037,
        0.0,
        0.0,
        0.0,
        0.0,
        1.0
      ],
      "name": "Sketchfab_model"
    },
    {
      "children": [
        2
      ],
      "matrix": [
        0.009999999776482582,
        0.0,
        0.0,
        0.0,
        0.0,
        0.0,
        0.009999999776482582,
        0.0,
        0.0,
        -0.009999999776482582,
        0.0,
        0.0,
        0.0,
        0.0,
        0.0,
        1.0
      ],
      "name": "blade.fbx"
    },
    {
      "children": [
        3
      ],
      "name": "RootNode"
    },
    {
      "children": [
        4
      ],
      "matrix": [
        100.0,
        0.0,
        0.0,
        0.0,
        0.0,
        -1.629206793918314e-05,
        -99.99999999999868,
        0.0,
        0.0,
        99.99999999999868,
        -1.629206793918314e-05,
        0.0,
        0.0,
        0.0,
        0.0,
        1.0
      ],
      "name": "black_blade"
    },
    {
      "mesh": 0,
      "name": "black_blade_Material_0"
    }
  ],
  "samplers": [
    {
      "magFilter": 9729,
      "minFilter": 9987,
      "wrapS": 10497,
      "wrapT": 10497
    }
  ],
  "scene": 0,
  "scenes": [
    {
      "name": "Sketchfab_Scene",
      "nodes": [
        0
      ]
    }
  ],
  "textures": [
    {
      "sampler": 0,
      "source": 0
    },
    {
      "sampler": 0,
      "source": 1
    },
    {
      "sampler": 0,
      "source": 2
    }
  ]
}
